<?xml version="1.0" encoding="utf-8"?>
<!-- Generator: Adobe Illustrator 21.0.0, SVG Export Plug-In . SVG Version: 6.00 Build 0)  -->
<svg version="1.1" id="Layer_1" xmlns="http://www.w3.org/2000/svg" xmlns:xlink="http://www.w3.org/1999/xlink" x="0px" y="0px"
	 viewBox="0 0 512 512" style="enable-background:new 0 0 512 512;" xml:space="preserve">
<style type="text/css">
	.st0{display:none;fill:#ED94BD;}
	.st1{fill:#ED94BD;}
</style>
<path class="st0" d="M506.6,208.1c5.9,4.3,7.2,12.7,2.9,18.6c-2.6,3.6-6.7,5.5-10.7,5.5c-2.7,0-5.5-0.8-7.8-2.6l-35.3-25.8v267.2
	c0,7.3-6,13.3-13.3,13.3h-133c-7,0-12.7-5.4-13.3-12.3c0-0.3-0.1-0.6-0.1-1V342c0-22-17.9-39.9-39.9-39.9S216.1,320,216.1,342v128.9
	c0,0.4,0,0.7-0.1,1c-0.5,6.9-6.3,12.3-13.3,12.3h-133c-7.3,0-13.3-6-13.3-13.3V203.7l-35.3,25.8c-5.9,4.4-14.2,3.1-18.6-2.9
	c-4.3-5.9-3.1-14.2,2.9-18.6L248.1,30.4c4.7-3.4,11-3.4,15.7,0L506.6,208.1z M428.9,457.6l0.1-273.3L256,57.6L82.9,184.3l0.1,273.3
	h106.4V342c0-36.7,29.8-66.5,66.5-66.5s66.5,29.8,66.5,66.5v115.6L428.9,457.6L428.9,457.6z"/>
<path class="st0" d="M429.1,184.3l-0.1,273.3H322.5V342c0-36.7-29.8-66.5-66.5-66.5s-66.5,29.8-66.5,66.5v115.6H83.1l-0.1-273.3
	L256,57.6L429.1,184.3z"/>
<g>
	<path class="st1" d="M446.3,442.8V27.7c0-15.2-12.5-27.7-27.7-27.7H93.4C78.2,0,65.7,12.5,65.7,27.7v27.7v387.5v41.5
		c0,15.2,12.5,27.7,27.7,27.7h325.2c10.1,0,19-5.6,23.8-13.8H121.1c-15.2,0-27.7-12.4-27.7-27.7h325.2
		C433.8,470.5,446.3,458,446.3,442.8z M160.3,370.3c-4.9,4.9-13,4.9-17.9,0c-4.9-4.9-4.9-13,0-17.9l78.9-78.9l17.9,17.9L160.3,370.3
		z M352.3,371.4c-5,5-13,4.9-17.9,0L200.2,237.2c-0.6-0.6-0.9-1.3-1.4-2c-19.4,9.2-47.3,2.6-68-18.1c-24.7-24.7-29.7-59.8-11.2-78.3
		c18.5-18.5,53.6-13.5,78.3,11.2c20.7,20.7,27.4,48.6,18.1,68c0.7,0.4,1.4,0.7,2,1.3l134.2,134.2
		C357.2,358.5,357.3,366.5,352.3,371.4z M401.5,178.3L344,235.8c-0.4,0.4-1,0.7-1.5,1c-19.6,17.5-39.8,17.6-56.2,7
		c-0.3,0.4-0.4,0.9-0.8,1.2l-13.2,13.2l-17.9-17.9l13.2-13.2c0.4-0.4,0.8-0.5,1.2-0.8c-10.6-16.4-10.4-36.6,7-56.2
		c0.3-0.5,0.5-1.1,1-1.5l57.5-57.5c2.6-2.7,7-2.7,9.6,0c2.6,2.6,2.6,6.9,0,9.6l-55.6,55.6l9.6,9.6l55.6-55.6c2.6-2.6,6.9-2.6,9.6,0
		c2.6,2.6,2.6,6.9,0,9.6l-55.6,55.6l9.6,9.6l55.6-55.6c2.6-2.6,6.9-2.7,9.6,0c2.6,2.6,2.6,6.9,0,9.6l-55.6,55.6l9.6,9.6l55.6-55.6
		c2.6-2.6,7-2.6,9.6,0C404.1,171.3,404.1,175.7,401.5,178.3z"/>
</g>
</svg>
