<?xml version="1.0" encoding="utf-8"?>
<!-- Generator: Adobe Illustrator 21.0.0, SVG Export Plug-In . SVG Version: 6.00 Build 0)  -->
<svg version="1.1" id="Layer_1" xmlns="http://www.w3.org/2000/svg" xmlns:xlink="http://www.w3.org/1999/xlink" x="0px" y="0px"
	 viewBox="0 0 512 512" style="enable-background:new 0 0 512 512;" xml:space="preserve">
<style type="text/css">
	.st0{fill:#ED94BD;}
</style>
<path class="st0" d="M506.6,208.1c5.9,4.3,7.2,12.7,2.9,18.6c-2.6,3.6-6.7,5.5-10.7,5.5c-2.7,0-5.5-0.8-7.8-2.6l-35.3-25.8v267.2
	c0,7.3-6,13.3-13.3,13.3h-133c-7,0-12.7-5.4-13.3-12.3c0-0.3-0.1-0.6-0.1-1V342c0-22-17.9-39.9-39.9-39.9S216.1,320,216.1,342v128.9
	c0,0.4,0,0.7-0.1,1c-0.5,6.9-6.3,12.3-13.3,12.3h-133c-7.3,0-13.3-6-13.3-13.3V203.7l-35.3,25.8c-5.9,4.4-14.2,3.1-18.6-2.9
	c-4.3-5.9-3.1-14.2,2.9-18.6L248.1,30.4c4.7-3.4,11-3.4,15.7,0L506.6,208.1z M428.9,457.6l0.1-273.3L256,57.6L82.9,184.3l0.1,273.3
	h106.4V342c0-36.7,29.8-66.5,66.5-66.5s66.5,29.8,66.5,66.5v115.6L428.9,457.6L428.9,457.6z"/>
<path class="st0" d="M429.1,184.3l-0.1,273.3H322.5V342c0-36.7-29.8-66.5-66.5-66.5s-66.5,29.8-66.5,66.5v115.6H83.1l-0.1-273.3
	L256,57.6L429.1,184.3z"/>
</svg>
